<?xml version="1.0" encoding="UTF-8"?>
<svg version="1.1" xmlns="http://www.w3.org/2000/svg" width="420" height="66" style="color:#04bbdb"><rect width="100%" height="100%" fill="#ffffff" />
<path d="M0 0 C5.87889011 4.88727009 9.31613276 8.99580518 10.9453125 16.6171875 C11.00236263 19.38004373 10.9634747 21.94359919 10.7578125 24.6796875 C10.72623047 25.36095703 10.69464844 26.04222656 10.66210938 26.74414062 C10.35609913 31.36090383 9.18807053 34.60688115 6.9453125 38.6171875 C6.6153125 39.6690625 6.2853125 40.7209375 5.9453125 41.8046875 C4.91243118 44.70966622 4.23562046 45.66618443 1.9453125 47.6171875 C1.1615625 48.4215625 0.3778125 49.2259375 -0.4296875 50.0546875 C-8.14252827 57.58388921 -14.45135308 58.97638307 -24.9296875 58.9921875 C-25.77660156 59.01667969 -26.62351562 59.04117188 -27.49609375 59.06640625 C-33.89057523 59.09578365 -38.40652662 57.49770557 -44.0546875 54.6171875 C-44.9621875 54.2871875 -45.8696875 53.9571875 -46.8046875 53.6171875 C-49.63479018 52.35936408 -51.69621485 50.6128182 -54.0546875 48.6171875 C-57.11055314 45.98691881 -57.11055314 45.98691881 -61.0546875 45.6171875 C-62.80687807 46.78503459 -62.80687807 46.78503459 -64.4921875 48.3671875 C-65.1109375 48.91632812 -65.7296875 49.46546875 -66.3671875 50.03125 C-68.14389166 51.66020643 -68.14389166 51.66020643 -69.9921875 53.7421875 C-75.8946252 59.10803995 -82.28524316 60.33466225 -90.0546875 60.6171875 C-90.90546875 60.66875 -91.75625 60.7203125 -92.6328125 60.7734375 C-101.03406448 61.08268604 -107.40416293 58.82194586 -114.0546875 53.6171875 C-119.63369994 48.26507269 -121.86794341 43.53881344 -122.2421875 35.6796875 C-122.19555938 34.32488145 -122.13321739 32.97051919 -122.0546875 31.6171875 C-121.9928125 30.3796875 -121.9309375 29.1421875 -121.8671875 27.8671875 C-120.54419383 18.66060145 -116.15685091 9.69964483 -109.0546875 3.6171875 C-108.3946875 3.6171875 -107.7346875 3.6171875 -107.0546875 3.6171875 C-106.5184375 2.9984375 -105.9821875 2.3796875 -105.4296875 1.7421875 C-100.40738374 -2.7514527 -93.14420393 -2.74705228 -86.6796875 -2.6953125 C-85.93509277 -2.68967285 -85.19049805 -2.6840332 -84.42333984 -2.67822266 C-72.30659038 -2.41189149 -61.11313286 2.49582269 -52.0546875 10.6171875 C-47.83205054 8.74045996 -44.35200741 6.15475184 -41.3671875 2.6171875 C-31.48230571 -5.93189946 -11.04294842 -7.00574147 0 0 Z M-107.0546875 10.6171875 C-102.60454552 12.07401147 -98.08098514 11.66682887 -93.45507812 11.578125 C-90.35739454 11.54121119 -88.02057232 11.62855923 -85.0546875 12.6171875 C-84.3946875 12.2871875 -83.7346875 11.9571875 -83.0546875 11.6171875 C-82.7246875 12.2771875 -82.3946875 12.9371875 -82.0546875 13.6171875 C-80.05897427 14.29657924 -78.05873977 14.96280309 -76.0546875 15.6171875 C-75.3946875 16.2771875 -74.7346875 16.9371875 -74.0546875 17.6171875 C-73.1265625 18.2153125 -72.1984375 18.8134375 -71.2421875 19.4296875 C-68.09163902 21.59182861 -65.71760229 23.88932357 -63.0546875 26.6171875 C-61.29091221 28.16586824 -59.50290531 29.68089657 -57.703125 31.1875 C-56.0546875 32.6171875 -56.0546875 32.6171875 -54.61328125 34.1171875 C-52.79478127 35.86732281 -50.86812004 37.13364685 -48.7421875 38.4921875 C-45.89058126 40.34387987 -43.27116798 42.22126625 -40.7421875 44.4921875 C-38.10276336 47.03067789 -38.10276336 47.03067789 -34.0546875 46.6171875 C-33.7246875 47.2771875 -33.3946875 47.9371875 -33.0546875 48.6171875 C-32.3946875 48.9471875 -31.7346875 49.2771875 -31.0546875 49.6171875 C-30.3946875 49.2871875 -29.7346875 48.9571875 -29.0546875 48.6171875 C-28.7246875 49.2771875 -28.3946875 49.9371875 -28.0546875 50.6171875 C-27.3946875 50.2871875 -26.7346875 49.9571875 -26.0546875 49.6171875 C-26.0546875 50.2771875 -26.0546875 50.9371875 -26.0546875 51.6171875 C-21.4346875 51.6171875 -16.8146875 51.6171875 -12.0546875 51.6171875 C-12.0546875 50.9571875 -12.0546875 50.2971875 -12.0546875 49.6171875 C-10.0746875 49.2871875 -8.0946875 48.9571875 -6.0546875 48.6171875 C-5.7246875 47.6271875 -5.3946875 46.6371875 -5.0546875 45.6171875 C-8.89025675 44.358334 -12.69611235 44.5408738 -16.6796875 44.6171875 C-23.78552692 44.75176779 -23.78552692 44.75176779 -26.0546875 43.6171875 C-27.0446875 44.1121875 -27.0446875 44.1121875 -28.0546875 44.6171875 C-28.3846875 43.9571875 -28.7146875 43.2971875 -29.0546875 42.6171875 C-29.9415625 42.3490625 -30.8284375 42.0809375 -31.7421875 41.8046875 C-35.58317092 40.42773118 -38.08378335 38.30183266 -41.0546875 35.6171875 C-42.0446875 34.7921875 -43.0346875 33.9671875 -44.0546875 33.1171875 C-45.0446875 32.2921875 -46.0346875 31.4671875 -47.0546875 30.6171875 C-47.57289062 30.19308594 -48.09109375 29.76898438 -48.625 29.33203125 C-51.59717477 26.89006856 -54.33760539 24.33426961 -57.0546875 21.6171875 C-60.27004499 18.8037497 -63.18215453 16.41514924 -67.0546875 14.6171875 C-67.7146875 13.9571875 -68.3746875 13.2971875 -69.0546875 12.6171875 C-70.0446875 12.2871875 -71.0346875 11.9571875 -72.0546875 11.6171875 C-72.7353125 10.905625 -72.7353125 10.905625 -73.4296875 10.1796875 C-75.47263451 8.21531537 -77.36074133 7.44609401 -80.0546875 6.6171875 C-81.0446875 7.1121875 -81.0446875 7.1121875 -82.0546875 7.6171875 C-82.3846875 6.9571875 -82.7146875 6.2971875 -83.0546875 5.6171875 C-92.36234029 2.51463657 -99.7357332 4.40716567 -107.0546875 10.6171875 Z M-34.0546875 12.6171875 C-36.0546875 13.6171875 -38.0546875 14.6171875 -40.0546875 15.6171875 C-40.7146875 16.6071875 -41.3746875 17.5971875 -42.0546875 18.6171875 C-39.80510416 21.20051979 -39.80510416 21.20051979 -37.0546875 23.6171875 C-35.7346875 23.6171875 -34.4146875 23.6171875 -33.0546875 23.6171875 C-32.7246875 24.2771875 -32.3946875 24.9371875 -32.0546875 25.6171875 C-25.81788957 28.11190667 -19.69237189 27.81337522 -13.0546875 27.6171875 C-13.0546875 26.9571875 -13.0546875 26.2971875 -13.0546875 25.6171875 C-11.9409375 25.3903125 -10.8271875 25.1634375 -9.6796875 24.9296875 C-5.98221038 24.0071646 -5.98221038 24.0071646 -4.6171875 21.3671875 C-3.99487073 18.32474997 -3.77948774 15.71318475 -4.0546875 12.6171875 C-4.7146875 11.9571875 -5.3746875 11.2971875 -6.0546875 10.6171875 C-6.5496875 10.1015625 -7.0446875 9.5859375 -7.5546875 9.0546875 C-10.59050875 6.1453588 -13.22707183 6.45296156 -17.3046875 6.4296875 C-18.98304687 6.40841797 -18.98304687 6.40841797 -20.6953125 6.38671875 C-26.73640579 6.80116585 -29.92269221 8.35606735 -34.0546875 12.6171875 Z M-98.0546875 28.6171875 C-98.0546875 29.2771875 -98.0546875 29.9371875 -98.0546875 30.6171875 C-99.694375 30.9265625 -99.694375 30.9265625 -101.3671875 31.2421875 C-105.18438737 32.29410825 -105.18438737 32.29410825 -107.1171875 35.3046875 C-108.30765124 39.51099271 -107.81079758 41.64685166 -106.0546875 45.6171875 C-103.85669196 47.1969968 -102.7393893 47.6171875 -100.0546875 47.6171875 C-99.7246875 48.2771875 -99.3946875 48.9371875 -99.0546875 49.6171875 C-94.7646875 49.6171875 -90.4746875 49.6171875 -86.0546875 49.6171875 C-86.0546875 48.9571875 -86.0546875 48.2971875 -86.0546875 47.6171875 C-85.0646875 47.9471875 -84.0746875 48.2771875 -83.0546875 48.6171875 C-80.15370175 47.65019225 -78.74172458 46.30422458 -76.5546875 44.1171875 C-74.32319996 41.88569996 -72.8103325 40.94749888 -70.0546875 39.6171875 C-69.3946875 38.6271875 -68.7346875 37.6371875 -68.0546875 36.6171875 C-68.8178125 36.3490625 -69.5809375 36.0809375 -70.3671875 35.8046875 C-72.97782254 34.65115109 -74.12853839 33.63088885 -76.0546875 31.6171875 C-77.0446875 31.2871875 -78.0346875 30.9571875 -79.0546875 30.6171875 C-80.0446875 31.1121875 -80.0446875 31.1121875 -81.0546875 31.6171875 C-81.3846875 30.9571875 -81.7146875 30.2971875 -82.0546875 29.6171875 C-83.0446875 30.1121875 -83.0446875 30.1121875 -84.0546875 30.6171875 C-84.0546875 29.9571875 -84.0546875 29.2971875 -84.0546875 28.6171875 C-88.6746875 28.6171875 -93.2946875 28.6171875 -98.0546875 28.6171875 Z " fill="currentColor" transform="translate(127.0546875,3.3828125)"/>
<path d="M0 0 C0.33 8.25 0.66 16.5 1 25 C3.04833702 23.17067673 3.04833702 23.17067673 3.9375 21.0625 C5.04818388 18.90646658 6.29899152 17.70100848 8 16 C8.33 15.34 8.66 14.68 9 14 C10.07077375 11.8584525 11.31968903 10.68031097 13 9 C13.33 8.34 13.66 7.68 14 7 C15.4448272 4.1103456 17.11993183 2.44003408 20 1 C22.37402501 0.92883618 24.75000677 0.91590915 27.125 0.9375 C28.40632813 0.94652344 29.68765625 0.95554688 31.0078125 0.96484375 C32.48894531 0.98224609 32.48894531 0.98224609 34 1 C33.39816251 3.02045442 32.72693904 5.02111039 32 7 C31.34 7.33 30.68 7.66 30 8 C29.34 8.99 28.68 9.98 28 11 C27.00692179 12.33849671 26.00642948 13.67151309 25 15 C24.505 15.66 24.01 16.32 23.5 17 C19 23 19 23 17.4375 25 C14.51150392 28.96832512 14.51150392 28.96832512 14.375 33.75 C14.58125 34.4925 14.7875 35.235 15 36 C15.66 36 16.32 36 17 36 C17.66 37.65 18.32 39.3 19 41 C19.66 41 20.32 41 21 41 C21.66 42.65 22.32 44.3 23 46 C23.66 46 24.32 46 25 46 C25.66 47.65 26.32 49.3 27 51 C27.66 51 28.32 51 29 51 C29.66 52.65 30.32 54.3 31 56 C31.66 56 32.32 56 33 56 C33.99 58.31 34.98 60.62 36 63 C30.39 63 24.78 63 19 63 C18.34 61.35 17.68 59.7 17 58 C15.64594139 56.39588754 15.64594139 56.39588754 14 55 C10.11428571 51.22857143 10.11428571 51.22857143 9 49 C8.01439389 47.65599167 7.01241685 46.32392972 6 45 C5.484375 44.278125 4.96875 43.55625 4.4375 42.8125 C3.11327289 40.88043417 3.11327289 40.88043417 1 40 C0.67 47.59 0.34 55.18 0 63 C-3.96 63 -7.92 63 -12 63 C-12 42.54 -12 22.08 -12 1 C-1 0 -1 0 0 0 Z " fill="currentColor" transform="translate(175,0)"/>
<path d="M0 0 C5.0007573 2.97755015 8.34374194 7.12627318 9.921875 12.78125 C10.28097157 17.53927951 10.171875 22.32218892 10.171875 27.09375 C-5.173125 27.58875 -5.173125 27.58875 -20.828125 28.09375 C-16.61869442 32.83022686 -16.61869442 32.83022686 -13.828125 34.09375 C-12.03381476 34.05672455 -10.24062249 33.94178932 -8.453125 33.78125 C-7.49664062 33.70261719 -6.54015625 33.62398437 -5.5546875 33.54296875 C-2.83809625 33.25293658 -2.83809625 33.25293658 -0.7421875 31.93359375 C1.171875 31.09375 1.171875 31.09375 3.3125 31.7734375 C4.00859375 32.16789062 4.7046875 32.56234375 5.421875 32.96875 C6.12828125 33.35804687 6.8346875 33.74734375 7.5625 34.1484375 C8.09359375 34.46039063 8.6246875 34.77234375 9.171875 35.09375 C8.6975 35.856875 8.223125 36.62 7.734375 37.40625 C6.07081403 40.05785548 6.07081403 40.05785548 5.171875 43.09375 C-0.01527074 46.64636107 -4.90462394 46.54798801 -10.953125 46.46875 C-12.29310547 46.48615234 -12.29310547 46.48615234 -13.66015625 46.50390625 C-20.15398448 46.47478594 -20.15398448 46.47478594 -23.25390625 44.72265625 C-23.77339844 44.18511719 -24.29289063 43.64757813 -24.828125 43.09375 C-25.83875 42.289375 -26.849375 41.485 -27.890625 40.65625 C-32.13722617 36.95176813 -33.97656765 34.64771252 -34.828125 29.09375 C-34.97074599 26.39217929 -35.05831675 23.73260065 -35.078125 21.03125 C-35.09875 20.32419922 -35.119375 19.61714844 -35.140625 18.88867188 C-35.17280395 14.60484871 -34.79981781 12.22303258 -31.828125 9.09375 C-31.498125 8.43375 -31.168125 7.77375 -30.828125 7.09375 C-22.650775 -1.64755518 -11.50309245 -3.68607382 0 0 Z M-15.828125 11.09375 C-15.828125 11.75375 -15.828125 12.41375 -15.828125 13.09375 C-16.446875 13.34125 -17.065625 13.58875 -17.703125 13.84375 C-20.28681386 15.10414254 -20.28681386 15.10414254 -21.828125 19.09375 C-15.228125 19.09375 -8.628125 19.09375 -1.828125 19.09375 C-3.83963763 12.31885108 -3.83963763 12.31885108 -6.828125 11.09375 C-8.36836496 11.02424459 -9.91147488 11.00922643 -11.453125 11.03125 C-12.27039063 11.04027344 -13.08765625 11.04929687 -13.9296875 11.05859375 C-14.55617187 11.07019531 -15.18265625 11.08179688 -15.828125 11.09375 Z " fill="currentColor" transform="translate(244.828125,16.90625)"/>
<path d="M0 0 C0 0.66 0 1.32 0 2 C0.515625 1.7525 1.03125 1.505 1.5625 1.25 C5.29448135 0.86723268 8.1287068 2.67884959 11 5 C11.495 6.485 11.495 6.485 12 8 C12.66 8 13.32 8 14 8 C18.60128863 15.56986194 19.88686978 22.09485546 19 31 C18.07104214 34.25857239 16.97183254 37.23091418 15 40 C13.67169769 40.6766352 12.33873091 41.34423954 11 42 C10.67 42.99 10.34 43.98 10 45 C5.02602563 48.3133719 0.47459945 48.57955935 -5.3125 48.5625 C-6.15756104 48.56008301 -7.00262207 48.55766602 -7.87329102 48.55517578 C-13.69003054 48.38308622 -17.84181185 47.57333629 -22.40234375 43.7109375 C-28.47703629 37.20552104 -29.14068014 31.54603849 -29.1875 22.875 C-29.20167969 21.67617188 -29.21585937 20.47734375 -29.23046875 19.2421875 C-28.92693833 14.97218328 -27.99212977 12.99212977 -25 10 C-24.7525 9.38125 -24.505 8.7625 -24.25 8.125 C-21.99019098 4.28332466 -18.25590668 2.58414264 -14.3125 0.75 C-9.53854433 -0.33089562 -4.87307859 -0.15607725 0 0 Z M-8.19140625 13.8203125 C-13.05228139 16.40525565 -13.05228139 16.40525565 -16.5625 20.5 C-16.706875 21.325 -16.85125 22.15 -17 23 C-17.2165625 24.175625 -17.2165625 24.175625 -17.4375 25.375 C-16.79086655 29.2548007 -14.80367304 32.25535165 -12 35 C-9.91000838 35.73721115 -9.91000838 35.73721115 -8 36 C-8 36.66 -8 37.32 -8 38 C-6.35 38 -4.7 38 -3 38 C-3 37.34 -3 36.68 -3 36 C-2.01 36.33 -1.02 36.66 0 37 C5.02643579 32.21880325 5.02643579 32.21880325 6.3125 25.75 C6.25286065 21.12795033 5.20568193 18.46560209 2 15 C-0.50417589 14.09871362 -0.50417589 14.09871362 -3 14 C-5.87637489 12.69190697 -5.87637489 12.69190697 -8.19140625 13.8203125 Z " fill="currentColor" transform="translate(356,15)"/>
<path d="M0 0 C1.04027344 0.06703125 2.08054687 0.1340625 3.15234375 0.203125 C6.36510776 0.80686589 7.67067175 1.57288702 10.0625 3.75 C11.098302 4.51666992 11.098302 4.51666992 12.1550293 5.29882812 C14.99592028 8.9494803 14.56469526 12.17325344 14.453125 16.671875 C14.44746521 17.53186096 14.44180542 18.39184692 14.43597412 19.27789307 C14.41361951 22.01916649 14.36342602 24.75912304 14.3125 27.5 C14.29243376 29.36065818 14.27418321 31.22133689 14.2578125 33.08203125 C14.21375784 37.63852666 14.14473754 42.19404022 14.0625 46.75 C10.4325 46.75 6.8025 46.75 3.0625 46.75 C3.0625 36.85 3.0625 26.95 3.0625 16.75 C2.4025 16.42 1.7425 16.09 1.0625 15.75 C0.4025 15.09 -0.2575 14.43 -0.9375 13.75 C-5.27393601 13.43462284 -7.26403229 13.30102153 -10.9375 15.75 C-13.17255727 19.08144728 -13.23980828 22.09822605 -13.3515625 26.046875 C-13.40957031 27.85478516 -13.40957031 27.85478516 -13.46875 29.69921875 C-13.4996875 30.95347656 -13.530625 32.20773438 -13.5625 33.5 C-13.60117187 34.76972656 -13.63984375 36.03945313 -13.6796875 37.34765625 C-13.7739394 40.48153181 -13.85680782 43.61574598 -13.9375 46.75 C-17.8975 46.75 -21.8575 46.75 -25.9375 46.75 C-25.9375 31.57 -25.9375 16.39 -25.9375 0.75 C-21.9775 1.08 -18.0175 1.41 -13.9375 1.75 C-13.6075 2.41 -13.2775 3.07 -12.9375 3.75 C-12.339375 3.275625 -11.74125 2.80125 -11.125 2.3125 C-7.33514377 -0.39454017 -4.50693738 -0.33425988 0 0 Z " fill="currentColor" transform="translate(404.9375,16.25)"/>
<path d="M0 0 C0 3.3 0 6.6 0 10 C3.3 10 6.6 10 10 10 C9.67 13.63 9.34 17.26 9 21 C6.03 21 3.06 21 0 21 C0.33 28.26 0.66 35.52 1 43 C3.97 43.33 6.94 43.66 10 44 C10 47.96 10 51.92 10 56 C7.75059705 56.08119503 5.50035129 56.13927819 3.25 56.1875 C1.99703125 56.22230469 0.7440625 56.25710937 -0.546875 56.29296875 C-5.40581987 55.88072795 -6.84647316 54.22258739 -10.08789062 50.78710938 C-12.39987105 47.41714403 -12.46735622 45.65304052 -12.390625 41.60546875 C-12.37773437 40.40341797 -12.36484375 39.20136719 -12.3515625 37.96289062 C-12.31804687 36.71701172 -12.28453125 35.47113281 -12.25 34.1875 C-12.23195313 32.92228516 -12.21390625 31.65707031 -12.1953125 30.35351562 C-12.14823916 27.23490665 -12.08249094 24.11784027 -12 21 C-14.31 21.33 -16.62 21.66 -19 22 C-19 18.04 -19 14.08 -19 10 C-16.69 10 -14.38 10 -12 10 C-12 7.03 -12 4.06 -12 1 C-10.18755015 0.83278881 -8.37503867 0.66624559 -6.5625 0.5 C-5.55316406 0.4071875 -4.54382813 0.314375 -3.50390625 0.21875 C-1 0 -1 0 0 0 Z " fill="currentColor" transform="translate(315,7)"/>
<path d="M0 0 C12 1 12 1 13 2 C13.09391296 3.90243762 13.11743658 5.80838459 13.11352539 7.71313477 C13.11344986 8.9343251 13.11337433 10.15551544 13.11329651 11.41371155 C13.10818911 12.75627686 13.10297311 14.09884175 13.09765625 15.44140625 C13.09579199 16.80761158 13.09436813 18.17381757 13.09336853 19.5400238 C13.08954394 23.14201695 13.07971417 26.74397 13.06866455 30.34594727 C13.05844916 34.01903745 13.05387064 37.69213409 13.04882812 41.36523438 C13.03809184 48.57684334 13.02049553 55.78841095 13 63 C8.71 63 4.42 63 0 63 C0 42.21 0 21.42 0 0 Z " fill="currentColor" transform="translate(260,0)"/>
<path d="M0 0 C3.96 0 7.92 0 12 0 C12 20.46 12 40.92 12 62 C8.04 62 4.08 62 0 62 C0 41.54 0 21.08 0 0 Z " fill="currentColor" transform="translate(280,1)"/>
<path d="" fill="currentColor" transform="translate(0,0)"/>
<path d="" fill="currentColor" transform="translate(0,0)"/>
<path d="" fill="currentColor" transform="translate(0,0)"/>
<path d="" fill="currentColor" transform="translate(0,0)"/>
<path d="" fill="currentColor" transform="translate(0,0)"/>
<path d="" fill="currentColor" transform="translate(0,0)"/>
<path d="" fill="currentColor" transform="translate(0,0)"/>
<path d="" fill="currentColor" transform="translate(0,0)"/>
<path d="" fill="currentColor" transform="translate(0,0)"/>
<path d="" fill="currentColor" transform="translate(0,0)"/>
<path d="" fill="currentColor" transform="translate(0,0)"/>
<path d="" fill="currentColor" transform="translate(0,0)"/>
<path d="" fill="currentColor" transform="translate(0,0)"/>
<path d="" fill="currentColor" transform="translate(0,0)"/>
<path d="" fill="currentColor" transform="translate(0,0)"/>
<path d="" fill="currentColor" transform="translate(0,0)"/>
<path d="" fill="currentColor" transform="translate(0,0)"/>
<path d="" fill="currentColor" transform="translate(0,0)"/>
<path d="" fill="currentColor" transform="translate(0,0)"/>
<path d="" fill="currentColor" transform="translate(0,0)"/>
<path d="" fill="currentColor" transform="translate(0,0)"/>
<path d="" fill="currentColor" transform="translate(0,0)"/>
<path d="" fill="currentColor" transform="translate(0,0)"/>
<path d="" fill="currentColor" transform="translate(0,0)"/>
<path d="" fill="currentColor" transform="translate(0,0)"/>
<path d="" fill="currentColor" transform="translate(0,0)"/>
<path d="" fill="currentColor" transform="translate(0,0)"/>
<path d="" fill="currentColor" transform="translate(0,0)"/>
<path d="" fill="currentColor" transform="translate(0,0)"/>
<path d="" fill="currentColor" transform="translate(0,0)"/>
<path d="" fill="currentColor" transform="translate(0,0)"/>
<path d="" fill="currentColor" transform="translate(0,0)"/>
<path d="" fill="currentColor" transform="translate(0,0)"/>
<path d="" fill="currentColor" transform="translate(0,0)"/>
<path d="" fill="currentColor" transform="translate(0,0)"/>
<path d="" fill="currentColor" transform="translate(0,0)"/>
<path d="" fill="currentColor" transform="translate(0,0)"/>
<path d="" fill="currentColor" transform="translate(0,0)"/>
<path d="" fill="currentColor" transform="translate(0,0)"/>
<path d="" fill="currentColor" transform="translate(0,0)"/>
<path d="" fill="currentColor" transform="translate(0,0)"/>
<path d="" fill="currentColor" transform="translate(0,0)"/>
<path d="" fill="currentColor" transform="translate(0,0)"/>
<path d="" fill="currentColor" transform="translate(0,0)"/>
<path d="" fill="currentColor" transform="translate(0,0)"/>
<path d="" fill="currentColor" transform="translate(0,0)"/>
<path d="" fill="currentColor" transform="translate(0,0)"/>
<path d="" fill="currentColor" transform="translate(0,0)"/>
<path d="" fill="currentColor" transform="translate(0,0)"/>
<path d="" fill="currentColor" transform="translate(0,0)"/>
<path d="" fill="currentColor" transform="translate(0,0)"/>
<path d="" fill="currentColor" transform="translate(0,0)"/>
<path d="" fill="currentColor" transform="translate(0,0)"/>
<path d="" fill="currentColor" transform="translate(0,0)"/>
<path d="" fill="currentColor" transform="translate(0,0)"/>
<path d="" fill="currentColor" transform="translate(0,0)"/>
<path d="" fill="currentColor" transform="translate(0,0)"/>
<path d="" fill="currentColor" transform="translate(0,0)"/>
<path d="" fill="currentColor" transform="translate(0,0)"/>
<path d="" fill="currentColor" transform="translate(0,0)"/>
<path d="" fill="currentColor" transform="translate(0,0)"/>
<path d="" fill="currentColor" transform="translate(0,0)"/>
<path d="" fill="currentColor" transform="translate(0,0)"/>
<path d="" fill="currentColor" transform="translate(0,0)"/>
<path d="" fill="currentColor" transform="translate(0,0)"/>
<path d="" fill="currentColor" transform="translate(0,0)"/>
<path d="" fill="currentColor" transform="translate(0,0)"/>
<path d="" fill="currentColor" transform="translate(0,0)"/>
<path d="" fill="currentColor" transform="translate(0,0)"/>
<path d="" fill="currentColor" transform="translate(0,0)"/>
<path d="" fill="currentColor" transform="translate(0,0)"/>
<path d="" fill="currentColor" transform="translate(0,0)"/>
<path d="" fill="currentColor" transform="translate(0,0)"/>
<path d="" fill="currentColor" transform="translate(0,0)"/>
<path d="" fill="currentColor" transform="translate(0,0)"/>
<path d="" fill="currentColor" transform="translate(0,0)"/>
<path d="" fill="currentColor" transform="translate(0,0)"/>
<path d="" fill="currentColor" transform="translate(0,0)"/>
<path d="" fill="currentColor" transform="translate(0,0)"/>
<path d="" fill="currentColor" transform="translate(0,0)"/>
<path d="" fill="currentColor" transform="translate(0,0)"/>
<path d="" fill="currentColor" transform="translate(0,0)"/>
<path d="" fill="currentColor" transform="translate(0,0)"/>
<path d="" fill="currentColor" transform="translate(0,0)"/>
<path d="" fill="currentColor" transform="translate(0,0)"/>
<path d="" fill="currentColor" transform="translate(0,0)"/>
<path d="" fill="currentColor" transform="translate(0,0)"/>
<path d="" fill="currentColor" transform="translate(0,0)"/>
<path d="" fill="currentColor" transform="translate(0,0)"/>
<path d="" fill="currentColor" transform="translate(0,0)"/>
<path d="" fill="currentColor" transform="translate(0,0)"/>
<path d="" fill="currentColor" transform="translate(0,0)"/>
<path d="" fill="currentColor" transform="translate(0,0)"/>
<path d="" fill="currentColor" transform="translate(0,0)"/>
<path d="" fill="currentColor" transform="translate(0,0)"/>
<path d="" fill="currentColor" transform="translate(0,0)"/>
<path d="" fill="currentColor" transform="translate(0,0)"/>
<path d="" fill="currentColor" transform="translate(0,0)"/>
</svg>


