<?xml version="1.0" encoding="UTF-8"?>
<svg version="1.1" xmlns="http://www.w3.org/2000/svg" width="415" height="96" style="color:#11407d"><rect width="100%" height="100%" fill="#ffffff" />
<path d="M0 0 C1.93805742 1.35362376 3.87042448 2.40074264 6.0078125 3.40234375 C6.50410156 2.93183594 7.00039063 2.46132813 7.51171875 1.9765625 C15.0766428 -4.95675499 22.20064356 -7.98045806 32.546875 -7.80859375 C42.49438455 -6.95595007 49.64481837 -2.40660325 56.3203125 4.77734375 C62.36728493 12.22103536 63.17288028 21.11667693 63.10546875 30.42578125 C63.1040538 31.17195709 63.10263885 31.91813293 63.10118103 32.68692017 C63.09562124 35.05043693 63.08307639 37.41385602 63.0703125 39.77734375 C63.0652923 41.38801946 63.0607303 42.99869666 63.05664062 44.609375 C63.04566501 48.54040174 63.02842846 52.47135623 63.0078125 56.40234375 C57.1891493 55.78013652 54.76859499 55.02273367 51.0078125 50.40234375 C48.95041446 47.08182827 48.74590321 44.44756385 48.69921875 40.5703125 C48.67408203 39.44173828 48.64894531 38.31316406 48.62304688 37.15039062 C48.58806496 34.78846378 48.55677751 32.42647915 48.52929688 30.06445312 C48.29948333 19.96461046 48.29948333 19.96461046 43.2890625 11.44140625 C42.40734375 10.74144531 42.40734375 10.74144531 41.5078125 10.02734375 C40.62609375 9.30417969 40.62609375 9.30417969 39.7265625 8.56640625 C35.54313422 5.73308437 30.85767337 5.83731142 26.0078125 6.40234375 C20.77403695 8.09184323 16.84715219 10.59730735 14.0078125 15.40234375 C12.42997112 20.7883479 11.68912989 25.78299626 11.59375 31.40234375 C11.57438385 32.12349365 11.5550177 32.84464355 11.5350647 33.58764648 C11.47595987 35.85909728 11.42916475 38.1306007 11.3828125 40.40234375 C11.34456884 41.95574954 11.30551354 43.50913558 11.265625 45.0625 C11.17031684 48.84228474 11.08603618 52.62216843 11.0078125 56.40234375 C6.13301408 55.7357622 3.58890119 54.88395776 0.0078125 51.40234375 C-2.1281326 48.05500866 -2.24351875 45.31446105 -2.265625 41.38671875 C-2.28625 40.21753906 -2.306875 39.04835937 -2.328125 37.84375 C-2.35400059 35.39850646 -2.37232865 32.95317047 -2.3828125 30.5078125 C-2.5343383 22.83892336 -2.96245616 16.71291867 -8.43896484 10.85473633 C-13.05834786 6.72110735 -16.72489738 6.0298842 -22.8359375 6.12109375 C-27.90629686 6.78244497 -31.80410218 9.21425843 -35.3671875 12.77734375 C-38.30838584 17.5285103 -39.23321879 21.92250623 -39.265625 27.46484375 C-39.28625 28.59148438 -39.306875 29.718125 -39.328125 30.87890625 C-39.35416585 33.22779097 -39.37239562 35.57677528 -39.3828125 37.92578125 C-39.6031546 48.62461421 -39.6031546 48.62461421 -43.9921875 53.40234375 C-47.42821562 55.97936484 -48.59291618 56.40234375 -52.9921875 56.40234375 C-53.09183574 51.03130366 -53.16402042 45.66081389 -53.21191406 40.2890625 C-53.23190114 38.46572483 -53.25910036 36.64245019 -53.29394531 34.81933594 C-53.53335378 21.96169313 -53.48202457 11.14474565 -44.1875 1.2265625 C-30.49488695 -10.15146294 -14.09796734 -10.22232687 0 0 Z " fill="currentColor" transform="translate(274.9921875,23.59765625)"/>
<path d="M0 0 C6.65859997 6.18298568 11.40985357 12.03454396 12.32421875 21.27734375 C12.64715894 31.53347886 10.87233762 38.81577678 4.375 46.8125 C-0.71777663 52.21103433 -8.13769804 56.79760358 -15.72729492 57.11352539 C-16.80084229 57.10828857 -17.87438965 57.10305176 -18.98046875 57.09765625 C-20.14384766 57.09443359 -21.30722656 57.09121094 -22.50585938 57.08789062 C-23.72080078 57.07951172 -24.93574219 57.07113281 -26.1875 57.0625 C-27.41404297 57.05798828 -28.64058594 57.05347656 -29.90429688 57.04882812 C-32.93624668 57.03703065 -35.96809906 57.02056921 -39 57 C-39.04535889 57.61560791 -39.09071777 58.23121582 -39.13745117 58.86547852 C-39.20939697 59.67428467 -39.28134277 60.48309082 -39.35546875 61.31640625 C-39.42145264 62.11763916 -39.48743652 62.91887207 -39.55541992 63.74438477 C-40.25682825 67.30304019 -42.19766654 68.849372 -45 71 C-48.1125413 72.9807081 -49.09879637 73 -53 73 C-53.07646293 65.77757599 -53.12877249 58.55525754 -53.16479492 51.33251953 C-53.17982224 48.87870381 -53.2002498 46.42491467 -53.22631836 43.97119141 C-53.2629682 40.43124808 -53.27978755 36.89166186 -53.29296875 33.3515625 C-53.31619453 31.722827 -53.31619453 31.722827 -53.33988953 30.06118774 C-53.34221117 19.40218053 -51.29972927 10.97794372 -44 3 C-31.63511859 -8.82727787 -13.84002384 -10.94327466 0 0 Z M-35.703125 14.0859375 C-38.43596019 18.11933884 -39.24930009 21.68764232 -39.1953125 26.51953125 C-39.18886719 27.54111328 -39.18242188 28.56269531 -39.17578125 29.61523438 C-39.15902344 30.67033203 -39.14226562 31.72542969 -39.125 32.8125 C-39.11597656 33.88693359 -39.10695313 34.96136719 -39.09765625 36.06835938 C-39.07415306 38.71246854 -39.04129575 41.35611872 -39 44 C-35.14609183 44.11693501 -31.29264488 44.1874962 -27.4375 44.25 C-25.80844727 44.30027344 -25.80844727 44.30027344 -24.14648438 44.3515625 C-15.69628633 44.45430047 -11.39437424 43.24351317 -5.1875 37.3125 C-2.15688166 32.72327794 -0.6966829 28.39838956 -1.19140625 22.85546875 C-2.46881506 16.83668672 -5.10519244 12.43077306 -10.0625 8.6875 C-19.85286771 3.06324621 -28.68904822 5.82742774 -35.703125 14.0859375 Z " fill="currentColor" transform="translate(124,23)"/>
<path d="M0 0 C0.825 0.53625 1.65 1.0725 2.5 1.625 C7.48856504 6.36413679 11.69048034 12.95107094 12.12025452 19.96160889 C12.11803391 20.64555725 12.11581329 21.32950562 12.11352539 22.03417969 C12.11341209 23.20494049 12.11341209 23.20494049 12.11329651 24.39935303 C12.10813522 25.23178528 12.10297394 26.06421753 12.09765625 26.921875 C12.0962413 27.78186096 12.09482635 28.64184692 12.09336853 29.52789307 C12.08778097 32.26863109 12.07523075 35.00928676 12.0625 37.75 C12.05748339 39.6106759 12.05292077 41.47135309 12.04882812 43.33203125 C12.03781561 47.88805246 12.02055951 52.44401228 12 57 C6.62895991 57.09964824 1.25847014 57.17183292 -4.11328125 57.21972656 C-5.93661892 57.23971364 -7.75989356 57.26691286 -9.58300781 57.30175781 C-22.91820517 57.55005831 -33.1647223 57.34326619 -43.31640625 47.72265625 C-50.54427573 40.32708678 -52.9717904 33.22597965 -53 23 C-52.36856359 13.81671835 -48.37992792 6.85504288 -41.625 0.6875 C-29.09142927 -9.29498996 -12.8949339 -9.89611206 0 0 Z M-36.58203125 14.96484375 C-39.66525051 19.39007028 -39.61654913 24.78502194 -39 30 C-36.99776295 36.19170043 -33.75317379 39.73326185 -28.19628906 43.08935547 C-25.45265306 44.22694576 -23.32548409 44.22686685 -20.359375 44.1953125 C-18.75449219 44.18564453 -18.75449219 44.18564453 -17.1171875 44.17578125 C-16.00601563 44.15902344 -14.89484375 44.14226562 -13.75 44.125 C-12.62335938 44.11597656 -11.49671875 44.10695312 -10.3359375 44.09765625 C-7.55707635 44.07410658 -4.7786461 44.0412168 -2 44 C0.60858054 36.17425839 0.15101719 24.43581808 -3.02734375 16.79296875 C-6.12579804 11.08136024 -9.6282672 7.91151984 -16 6 C-25.40605321 4.81808756 -30.49793323 7.99432085 -36.58203125 14.96484375 Z " fill="currentColor" transform="translate(398,23)"/>
<path d="M0 0 C7.80359051 5.55912924 12.87791581 11.89350548 15.48828125 21.1484375 C16.54867111 29.84363434 15.28745871 37.18163213 11.05078125 44.8984375 C5.26236776 52.13395436 -0.81411105 57.90805326 -10.19921875 59.7109375 C-21.2136574 60.55713493 -29.80886458 59.54314844 -38.51171875 52.4609375 C-44.53287426 46.7803726 -48.69247983 39.95601441 -49.5 31.59765625 C-49.53934527 20.85639627 -47.84129646 12.61998735 -40.19921875 4.7109375 C-28.77633689 -4.96131112 -13.26045037 -7.77255528 0 0 Z M-32.13671875 15.7734375 C-36.07840452 21.38735359 -35.66651495 27.07180476 -35.19921875 33.7109375 C-33.45820573 39.24121415 -29.74656498 42.34699704 -25.19921875 45.7109375 C-20.97746241 47.82181567 -15.78317454 47.21643638 -11.19921875 46.7109375 C-5.49745989 44.58423645 -2.10029112 41.04891065 0.80078125 35.7109375 C2.57746892 30.38087449 2.47888311 24.87238719 0.80078125 19.5234375 C-2.52268986 14.84980625 -6.68972848 10.54743426 -12.19921875 8.7109375 C-20.21560276 7.74644159 -26.74820134 9.58204644 -32.13671875 15.7734375 Z " fill="currentColor" transform="translate(49.19921875,20.2890625)"/>
<path d="M0 0 C21.12 0 42.24 0 64 0 C63.04812889 5.71122666 62.77878972 7.11324486 59 11 C55 13 55 13 39 13 C39 29.5 39 46 39 63 C30.94736842 61.84962406 30.94736842 61.84962406 27 57 C25.33677113 54.16984761 24.75223332 52.14713612 24.77294922 48.87402344 C24.77310028 48.07349548 24.77325134 47.27296753 24.77340698 46.44818115 C24.78889084 45.16672211 24.78889084 45.16672211 24.8046875 43.859375 C24.8075174 42.97719299 24.81034729 42.09501099 24.81326294 41.18609619 C24.82444039 38.37392501 24.84954049 35.5620746 24.875 32.75 C24.88503295 30.84115044 24.89415825 28.93229588 24.90234375 27.0234375 C24.92437176 22.34883511 24.95888489 17.67447191 25 13 C23.37191406 13.06960937 23.37191406 13.06960937 21.7109375 13.140625 C20.26565269 13.17816487 18.82033789 13.21456264 17.375 13.25 C16.66214844 13.28351562 15.94929687 13.31703125 15.21484375 13.3515625 C9.98774627 13.44747255 7.18033603 12.39337518 3 9 C-0.2296719 5.66267237 0 5.0494445 0 0 Z " fill="currentColor" transform="translate(131,17)"/>
<path d="M0 0 C5.45986114 0.7015464 8.05465722 2.05465722 12 6 C13.77921308 9.58448001 14.24604287 12.4540186 14.22705078 16.43286133 C14.22682419 18.02394463 14.22682419 18.02394463 14.22659302 19.64717102 C14.21627045 20.7806749 14.20594788 21.91417877 14.1953125 23.08203125 C14.1924826 24.25134689 14.18965271 25.42066254 14.18673706 26.62541199 C14.17555562 30.35454608 14.15045434 34.08343868 14.125 37.8125 C14.11496759 40.34309549 14.10584219 42.87369474 14.09765625 45.40429688 C14.07562292 51.60294677 14.04216534 57.80145613 14 64 C8.1813368 63.37779277 5.76078249 62.62038992 2 58 C0.02155917 54.77504947 -0.24462192 52.34909116 -0.22705078 48.58886719 C-0.22689972 47.50804871 -0.22674866 46.42723022 -0.22659302 45.31365967 C-0.21627045 44.15312073 -0.20594788 42.99258179 -0.1953125 41.796875 C-0.1924826 40.60394836 -0.18965271 39.41102173 -0.18673706 38.1819458 C-0.17554053 34.37119524 -0.15043653 30.56067955 -0.125 26.75 C-0.11496954 24.16667006 -0.1058438 21.58333644 -0.09765625 19 C-0.07560289 12.66658651 -0.04213035 6.33331003 0 0 Z " fill="currentColor" transform="translate(200,16)"/>
<path d="M0 0 C4.11744519 1.52669316 5.79002702 4.10253571 8.1875 7.6875 C9.22970703 9.20923828 9.22970703 9.20923828 10.29296875 10.76171875 C12.16621099 14.31530644 12.77824526 17.00369658 13 21 C11.64559844 24.52144404 10.21011082 27.89682395 7 30 C2.46282273 31.04131937 0.0978514 31.37285519 -4.3125 29.875 C-8.58686435 26.89288534 -9.70599298 24.52349091 -10.6875 19.4375 C-10.50437402 13.04029912 -5.6392938 7.93277774 -2 3 C-1.34 2.01 -0.68 1.02 0 0 Z " fill="currentColor" transform="translate(31,32)"/>
<path d="M0 0 C3.40778595 3.11145673 4.83873125 4.97863124 5.5625 9.5625 C4.91429589 13.52374737 3.81200626 15.18799374 1 18 C-2.14911479 19.57455739 -4.52008816 19.34799118 -8 19 C-11.27777586 17.24456893 -13.52338754 15.06536902 -15.0625 11.625 C-14.97080551 7.7738313 -13.91252507 5.33149527 -12 2 C-7.83290584 -0.96326696 -4.85418246 -1.75576812 0 0 Z M-12 5 C-13.2706357 9.11088021 -13.46450952 11.0507849 -11.5625 14.9375 C-8.47684216 17.42107826 -6.77697831 17.69179506 -2.90625 17.41015625 C-0.80362658 17.06498883 -0.80362658 17.06498883 1.5 15.5 C3.60888332 11.98519447 3.94951803 8.99452412 3 5 C0.60578005 2.26374862 -0.94269804 1.21146039 -4.5 0.5 C-8.00701471 1.20140294 -9.57603898 2.37404223 -12 5 Z " fill="currentColor" transform="translate(410,1)"/>
<path d="M0 0 C2.31 0 4.62 0 7 0 C8.10844919 3.32534757 7.84454356 5.62182575 7 9 C5 9 5 9 3.375 7.5 C2.92125 7.005 2.4675 6.51 2 6 C2 6.99 2 7.98 2 9 C1.34 9 0.68 9 0 9 C0 6.03 0 3.06 0 0 Z M2 1 C2 1.99 2 2.98 2 4 C3.32 4 4.64 4 6 4 C5.67 3.01 5.34 2.02 5 1 C4.01 1 3.02 1 2 1 Z " fill="currentColor" transform="translate(402,6)"/>
</svg>


